<svg width="201" height="114" viewBox="0 0 201 114" fill="none" xmlns="http://www.w3.org/2000/svg">
<g clip-path="url(#clip0_71_313)">
<path d="M0.333984 0.938232H200.334V113.062H0.333984V0.938232Z" fill="#EA2D31"/>
<path d="M12.5625 20.2249V83.8468H26.0396C43.8638 85.5035 43.8566 62.9 43.8566 62.9V43.2336C43.6495 19.8135 26.8572 20.2249 26.8572 20.2249H12.5634H12.5625ZM25.0807 30.077C32.0407 29.5782 31.8381 39.6788 31.8372 39.6788V63.9328C32.0443 75.9548 24.3694 74.1036 24.3694 74.1036V30.1491C24.608 30.1095 24.8556 30.0924 25.0807 30.077ZM49.6596 20.2132H61.2657V83.8405H49.6596V20.2132ZM94.2192 83.6622V74.3062H79.0899V56.482H89.6605V46.3274H79.297V30.3688H93.8059V20.2123H67.2749V83.7891L94.2192 83.6622ZM115.772 38.4507H125.927C125.927 38.4507 127.17 18.7627 111.211 18.7627C95.2529 18.7627 96.0839 34.0982 96.0839 34.0982C96.0839 34.0982 94.0112 46.5326 107.276 56.4802C107.276 56.4802 121.162 64.5648 115.981 73.268C115.981 73.268 107.69 80.7296 107.481 65.8074H96.9123C96.9123 65.8074 95.0476 86.3256 112.457 85.4972C112.457 85.4972 126.755 85.2892 127.793 70.367C127.793 70.367 129.452 59.3822 118.26 49.2257C118.26 49.2257 102.301 38.864 108.103 30.5741C108.104 30.5741 114.736 23.7365 115.771 38.4507H115.772ZM131.469 20.2132H158.019V30.575H143.546V46.5344H154.322V57.1042H143.338V74.3062H158.468V84.2547H131.731L131.469 20.2132ZM164.016 20.2132H175.666V74.3062H187.897V84.2547H164.016V20.2132ZM183.448 21.2532C183.708 21.1992 184.089 21.1631 184.437 21.1631C184.989 21.1631 185.351 21.2712 185.598 21.4963C185.795 21.6674 185.913 21.9402 185.913 22.2544C185.913 22.7749 185.575 23.126 185.161 23.2674V23.2854C185.464 23.3925 185.647 23.677 185.746 24.0921C185.878 24.6477 185.971 25.033 186.05 25.187H185.516C185.451 25.0736 185.363 24.7305 185.255 24.2326C185.137 23.6824 184.919 23.4745 184.45 23.4564H183.964V25.187H183.45V21.2541L183.448 21.2532ZM183.962 23.0657H184.49C185.04 23.0657 185.39 22.7649 185.39 22.3084C185.39 21.7925 185.018 21.5683 184.472 21.5683C184.223 21.5683 184.05 21.5917 183.962 21.6169V23.0657Z" fill="white"/>
<path d="M188.08 23.3225C188.08 24.2521 187.71 25.1437 187.053 25.801C186.396 26.4584 185.504 26.8277 184.574 26.8277H184.573C184.112 26.8282 183.656 26.7379 183.231 26.562C182.805 26.3862 182.419 26.1282 182.093 25.8028C181.768 25.4774 181.509 25.091 181.333 24.6657C181.157 24.2404 181.066 23.7846 181.066 23.3243V23.3225C181.066 22.8622 181.157 22.4063 181.333 21.981C181.509 21.5557 181.767 21.1692 182.092 20.8437C182.418 20.5182 182.804 20.2599 183.229 20.0838C183.655 19.9077 184.11 19.8171 184.571 19.8172V19.8154H184.574V19.8172C185.541 19.8172 186.417 20.2098 187.052 20.8437C187.378 21.1683 187.637 21.5542 187.813 21.9792C187.989 22.4041 188.079 22.8597 188.079 23.3198H188.08V23.3225H188.08ZM187.285 23.3225V23.3207C187.285 22.5733 186.98 21.8971 186.489 21.4073V21.4055C186.239 21.1532 185.94 20.9531 185.611 20.8168C185.283 20.6805 184.93 20.6107 184.574 20.6114H184.571C183.824 20.6114 183.146 20.9166 182.656 21.4073C182.403 21.6583 182.202 21.9568 182.066 22.2857C181.929 22.6146 181.859 22.9672 181.86 23.3234H181.862V23.3261H181.86C181.861 24.0725 182.166 24.7478 182.656 25.2394C182.907 25.4922 183.206 25.6927 183.535 25.8294C183.864 25.966 184.217 26.036 184.573 26.0353L184.574 26.0345C185.322 26.0345 185.999 25.7319 186.492 25.2412H186.489C186.742 24.9895 186.942 24.6905 187.078 24.3614C187.214 24.0323 187.285 23.6796 187.285 23.3234L187.285 23.3225Z" fill="white"/>
</g>
<defs>
<clipPath id="clip0_71_313">
<rect width="200" height="112.16" fill="white" transform="translate(0.333984 0.919922)"/>
</clipPath>
</defs>
</svg>
