<svg width="200" height="200" viewBox="0 0 200 200" fill="none" xmlns="http://www.w3.org/2000/svg">
<path fill-rule="evenodd" clip-rule="evenodd" d="M48.2598 84.1583H58.5401V68.3154H48.2598V84.1583Z" fill="#888A8D"/>
<path fill-rule="evenodd" clip-rule="evenodd" d="M48.2598 100H58.5401V84.1582H48.2598V100Z" fill="#AEB3B6"/>
<path fill-rule="evenodd" clip-rule="evenodd" d="M48.2598 115.842H58.5401V100H48.2598V115.842Z" fill="#DDE0E3"/>
<path fill-rule="evenodd" clip-rule="evenodd" d="M48.2596 131.684H58.5399V115.842H48.2596V131.684ZM35.4506 116.854C35.4506 123.258 27.5297 124.944 23.148 124.944C18.261 124.944 13.8783 122.754 13.8783 117.866C13.8783 111.293 20.9567 111.293 25.5075 111.293C29.2158 111.293 35.4506 111.798 35.4506 116.854ZM40.5078 80.9567C38.6536 81.2939 37.643 81.2939 36.4633 81.2939C33.5985 81.2939 31.5763 80.7886 29.5541 80.1141C28.0371 79.6088 25.6777 79.1025 23.4863 79.1025C14.891 79.1025 10.3412 83.8214 10.3412 89.8892C10.3412 94.6081 13.0378 97.3048 16.9142 99.327C15.9026 100.17 13.0378 101.517 11.1837 102.867C10.8465 103.54 10.8465 104.215 10.8465 105.058C10.8465 108.26 14.0484 110.282 17.0823 111.123V111.293C12.6996 112.135 8.82422 114.832 8.82422 119.383C8.82422 123.258 13.2059 127.303 22.1385 127.303C36.9686 127.303 40.6769 116.518 40.6769 113.821C40.6769 108.429 37.1377 106.743 31.071 106.743C28.2052 106.743 24.8351 106.575 21.2959 106.575C16.7451 106.575 16.4089 104.384 16.4089 103.373C16.4089 101.686 17.2515 100.675 18.5993 99.8334C19.9471 100.001 21.2959 100.171 22.4757 100.171C31.071 100.171 35.4527 94.44 35.4527 89.3839C35.4527 87.5308 34.7793 85.5075 33.5996 84.1597L40.5088 84.3278L40.5078 80.9567ZM29.7211 90.2264C29.7211 94.44 27.6989 98.3154 22.9799 98.3154C18.0929 98.3154 16.4079 93.0912 16.4079 89.0456C16.4079 85.3373 18.2621 80.9567 22.6438 80.9567C27.5308 80.9567 29.7211 85.8437 29.7211 90.2264ZM91.4043 97.641C91.4043 103.203 88.2023 109.607 81.7983 109.607C77.9219 109.607 75.7306 106.742 74.8881 105.226V87.6978C76.2359 86.6862 78.5953 85.5065 80.6176 85.5065C87.697 85.5065 91.4043 91.4051 91.4043 97.641ZM74.8881 110.45C76.5731 111.122 78.9325 111.63 80.6176 111.63C89.5491 111.63 96.4604 103.876 96.4604 94.9443C96.4604 88.2031 91.9096 81.2928 84.6631 81.2928C80.7867 81.2928 77.4156 83.8214 74.8881 86.0118V81.462C74.8881 80.7875 74.5508 80.7875 74.2136 80.7875C74.0445 80.7875 73.8764 80.9567 73.5392 81.1247C71.0116 82.1364 68.4831 83.3161 65.9555 84.4958V85.5075C67.9778 86.35 69.8319 86.1819 69.8319 91.0689V121.574C69.8319 122.585 69.4947 123.764 67.1352 123.764H64.6077V125.448C67.3044 125.28 70.001 125.28 72.6967 125.28C75.3934 125.28 78.09 125.28 80.9548 125.448V123.764H77.9219C76.5741 123.764 74.8891 123.764 74.8891 122.078L74.8881 110.45ZM98.3146 108.932H99.9996C101.853 108.932 103.032 108.932 103.032 106.91V88.7095C103.032 86.6872 100.674 86.35 99.6624 85.8437V84.832C104.381 82.9789 107.079 81.2928 107.583 81.2928C107.919 81.2928 108.088 81.462 108.088 82.1354V87.8659H108.258C109.942 85.3373 112.639 81.2928 116.516 81.2928C118.2 81.2928 120.222 82.3045 120.222 84.6639C120.222 86.349 119.042 87.8659 117.188 87.8659C115.166 87.8659 115.166 86.349 112.975 86.349C111.795 86.349 108.257 87.8659 108.257 91.7423V106.91C108.257 108.932 109.436 108.932 111.291 108.932H114.997V110.618H98.3125V108.932H98.3146ZM122.245 108.932H123.425C125.279 108.932 126.627 108.932 126.627 106.91V89.3829C126.627 86.5181 125.615 86.1809 123.257 84.832V83.8214C126.291 82.9789 129.829 81.7992 130.167 81.63C130.503 81.2928 130.84 81.2928 131.179 81.2928C131.515 81.2928 131.683 81.6301 131.683 82.1354V106.909C131.683 108.931 133.033 108.931 134.885 108.931H136.067V110.617H122.246L122.245 108.932ZM143.143 89.8882C143.143 87.3606 142.471 86.8543 139.437 85.5065V84.3267C142.133 83.4842 144.829 82.6417 147.863 81.2939C148.031 81.2939 148.199 81.2939 148.199 81.9683V86.0128C151.908 83.4852 155.11 81.2939 159.491 81.2939C164.886 81.2939 166.908 85.3384 166.908 90.2264V106.911C166.908 108.933 168.256 108.933 170.11 108.933H171.29V110.619H157.469V108.933H158.649C160.503 108.933 161.683 108.933 161.683 106.911V90.2264C161.683 86.5181 159.492 84.665 155.785 84.665C153.595 84.665 150.393 86.35 148.199 87.867V106.911C148.199 108.933 149.717 108.933 151.401 108.933H152.583V110.619H138.763V108.933H139.942C141.796 108.933 143.144 108.933 143.144 106.911V89.8882H143.143ZM181.57 102.697C181.57 107.081 183.928 108.091 185.784 108.091C187.47 108.091 188.818 107.585 190.165 106.237L191.177 107.249C188.987 109.607 186.121 111.631 182.583 111.631C178.538 111.631 176.515 109.44 176.515 105.731V85.6756H172.301V84.6639C175.671 82.1354 177.526 80.7875 180.896 75.5633H181.57V82.3045H191.176V85.6756H181.57V102.697ZM128.481 68.9902C126.459 68.9902 124.943 70.5072 124.943 72.3613C124.943 74.2155 126.459 75.7324 128.481 75.7324C130.335 75.7324 131.851 74.2155 131.851 72.3613C131.851 70.5072 130.335 68.9902 128.481 68.9902Z" fill="#0C0E0F"/>
</svg>
