<svg width="28" height="28" viewBox="0 0 28 28" fill="none" xmlns="http://www.w3.org/2000/svg">
<path d="M25.6673 4.67786C24.5007 5.24953 23.3573 5.48169 22.1673 5.83286C20.8595 4.35703 18.9205 4.27536 17.0573 4.97303C15.1942 5.67069 13.9738 7.37636 14.0007 9.33286V10.4995C10.2148 10.5964 6.84315 8.87203 4.66732 5.83286C4.66732 5.83286 -0.211682 14.5047 9.33398 18.6662C7.14998 20.121 4.97182 21.1022 2.33398 20.9995C6.19332 23.103 10.3992 23.8264 14.0403 22.7694C18.217 21.556 21.6493 18.4259 22.9665 13.737C23.3594 12.311 23.5545 10.8377 23.5463 9.35853C23.5463 9.06803 25.308 6.12453 25.6673 4.67669V4.67786Z" stroke="#E4D5FD" stroke-width="2" stroke-linecap="round" stroke-linejoin="round"/>
</svg>
