<svg width="28" height="28" viewBox="0 0 28 28" fill="none" xmlns="http://www.w3.org/2000/svg">
<path d="M4.66602 9.33366C4.66602 8.09598 5.15768 6.909 6.03285 6.03383C6.90802 5.15866 8.09501 4.66699 9.33268 4.66699H18.666C19.9037 4.66699 21.0907 5.15866 21.9658 6.03383C22.841 6.909 23.3327 8.09598 23.3327 9.33366V18.667C23.3327 19.9047 22.841 21.0917 21.9658 21.9668C21.0907 22.842 19.9037 23.3337 18.666 23.3337H9.33268C8.09501 23.3337 6.90802 22.842 6.03285 21.9668C5.15768 21.0917 4.66602 19.9047 4.66602 18.667V9.33366Z" stroke="#E4D5FD" stroke-width="2" stroke-linecap="round" stroke-linejoin="round"/>
<path d="M19.25 8.75V8.76167M10.5 14C10.5 14.9283 10.8687 15.8185 11.5251 16.4749C12.1815 17.1313 13.0717 17.5 14 17.5C14.9283 17.5 15.8185 17.1313 16.4749 16.4749C17.1313 15.8185 17.5 14.9283 17.5 14C17.5 13.0717 17.1313 12.1815 16.4749 11.5251C15.8185 10.8687 14.9283 10.5 14 10.5C13.0717 10.5 12.1815 10.8687 11.5251 11.5251C10.8687 12.1815 10.5 13.0717 10.5 14Z" stroke="#E4D5FD" stroke-width="2" stroke-linecap="round" stroke-linejoin="round"/>
</svg>
