<svg width="16" height="16" viewBox="0 0 16 16" fill="none" xmlns="http://www.w3.org/2000/svg">
<g clip-path="url(#clip0_257_83)">
<path d="M8.00065 1.33325C11.6827 1.33325 14.6673 4.31792 14.6673 7.99992C14.6673 11.6819 11.6827 14.6666 8.00065 14.6666C4.31865 14.6666 1.33398 11.6819 1.33398 7.99992C1.33398 4.31792 4.31865 1.33325 8.00065 1.33325ZM10.3573 5.58725L7.05732 8.88725L5.64398 7.47325C5.58209 7.41131 5.5086 7.36217 5.42771 7.32863C5.34682 7.29509 5.26012 7.27781 5.17255 7.27778C4.99571 7.27772 4.82608 7.34791 4.70098 7.47292C4.57589 7.59792 4.50558 7.7675 4.50552 7.94435C4.50545 8.1212 4.57565 8.29082 4.70065 8.41592L6.53932 10.2546C6.60742 10.3227 6.68828 10.3768 6.77727 10.4136C6.86626 10.4505 6.96165 10.4695 7.05798 10.4695C7.15432 10.4695 7.2497 10.4505 7.3387 10.4136C7.42769 10.3768 7.50855 10.3227 7.57665 10.2546L11.3007 6.53058C11.4257 6.40549 11.496 6.23583 11.496 6.05892C11.496 5.88201 11.4257 5.71235 11.3007 5.58725C11.1756 5.46216 11.0059 5.39188 10.829 5.39188C10.6521 5.39188 10.4824 5.46216 10.3573 5.58725Z" fill="#AF72FE"/>
</g>
<defs>
<clipPath id="clip0_257_83">
<rect width="16" height="16" fill="white"/>
</clipPath>
</defs>
</svg>
