<svg width="80" height="80" viewBox="0 0 80 80" fill="none" xmlns="http://www.w3.org/2000/svg">
<rect width="80" height="80" rx="40" fill="#AF72FE"/>
<g clip-path="url(#clip0_257_75)">
<path fill-rule="evenodd" clip-rule="evenodd" d="M47.1927 29.2258L47.4902 29.2632C48.2765 29.3717 49.3172 29.5175 49.9063 30.1078C50.3893 30.5897 50.5748 31.3737 50.6857 32.0737L50.751 32.524C50.898 33.5857 50.9365 34.9763 50.6857 36.521C50.191 39.5695 48.5682 43.2072 44.493 46.0235C44.4708 46.2428 44.4697 46.4645 44.4743 46.6862L44.486 47.0175C44.5047 47.5273 44.5233 48.0372 44.381 48.5318C44.1593 49.3018 43.3695 49.8093 42.631 50.1733L42.2693 50.3448L41.8027 50.5502C40.93 50.9212 39.7517 51.3015 39.0132 50.5618C38.5698 50.1197 38.3878 49.471 38.2397 48.8258L38.1848 48.5843C38.1231 48.2794 38.0452 47.978 37.9515 47.6813C37.8932 47.511 37.8302 47.3372 37.7625 47.1622C37.688 47.2536 37.609 47.3412 37.5257 47.4247C37.1232 47.8272 36.5223 48.1083 36.0277 48.3055C35.4875 48.519 34.8762 48.7057 34.3103 48.8597L34.0198 48.9367L33.4633 49.0755L32.9593 49.1922L32.3562 49.3205L31.9793 49.394C31.7914 49.4288 31.5978 49.4173 31.4153 49.3606C31.2328 49.304 31.0668 49.2037 30.9316 49.0686C30.7965 48.9334 30.6962 48.7674 30.6395 48.5849C30.5828 48.4023 30.5714 48.2088 30.6062 48.0208L30.7065 47.518L30.8862 46.7037L31.0308 46.1087L31.1405 45.6887C31.2945 45.124 31.4812 44.5127 31.6958 43.9737C31.8918 43.4778 32.173 42.877 32.5755 42.4745L32.6688 42.3847L32.5942 42.3543C32.3948 42.2785 32.1928 42.2096 31.9887 42.1478L31.6655 42.0487C30.8558 41.8037 29.9902 41.54 29.4523 41.001C28.799 40.3488 29.0195 39.356 29.3345 38.53L29.4628 38.2103L29.6693 37.7437L29.8408 37.382C30.2048 36.6447 30.7123 35.8548 31.4823 35.6332C31.8907 35.5165 32.3153 35.5095 32.7423 35.5212L32.999 35.5293C33.3327 35.541 33.6652 35.5538 33.9907 35.5223C36.807 31.446 40.4447 29.8232 43.4932 29.3285C44.7161 29.1279 45.9605 29.0934 47.1927 29.2258ZM35.7453 44.0133C35.5617 43.8774 35.3423 43.7983 35.1142 43.7859C34.8861 43.7735 34.6593 43.8282 34.462 43.9433L34.3337 44.0297L34.2252 44.1265L34.0793 44.3108C33.776 44.7495 33.6033 45.3562 33.4692 45.9232L33.3432 46.4692L33.2837 46.7177L33.5065 46.664L33.9942 46.552C34.6685 46.3945 35.4163 46.1903 35.876 45.7762C36.0759 45.5764 36.1964 45.3109 36.2153 45.0289C36.2342 44.747 36.1501 44.4678 35.9787 44.2432L35.883 44.1335L35.855 44.1067L35.7453 44.0133ZM44.1255 35.877C43.9089 35.6603 43.6517 35.4884 43.3686 35.371C43.0855 35.2537 42.7821 35.1933 42.4757 35.1933C42.1692 35.1932 41.8658 35.2535 41.5827 35.3707C41.2996 35.4879 41.0423 35.6598 40.8256 35.8764C40.6089 36.093 40.437 36.3502 40.3196 36.6333C40.2023 36.9164 40.1419 37.2198 40.1419 37.5262C40.1418 37.8327 40.2021 38.1361 40.3193 38.4192C40.4365 38.7023 40.6084 38.9596 40.825 39.1763C41.2625 39.614 41.856 39.8599 42.4748 39.8601C43.0937 39.8602 43.6873 39.6144 44.1249 39.1769C44.5626 38.7394 44.8085 38.1459 44.8087 37.5271C44.8088 36.9082 44.563 36.3147 44.1255 35.877Z" fill="#080310"/>
</g>
<defs>
<clipPath id="clip0_257_75">
<rect width="28" height="28" fill="white" transform="translate(26 26)"/>
</clipPath>
</defs>
</svg>
