<svg width="28" height="28" viewBox="0 0 28 28" fill="none" xmlns="http://www.w3.org/2000/svg">
<path d="M9.33268 12.8337V18.667M9.33268 9.33366V9.34533M13.9993 18.667V12.8337M4.66602 7.00033C4.66602 6.38149 4.91185 5.78799 5.34943 5.35041C5.78702 4.91282 6.38051 4.66699 6.99935 4.66699H20.9994C21.6182 4.66699 22.2117 4.91282 22.6493 5.35041C23.0869 5.78799 23.3327 6.38149 23.3327 7.00033V21.0003C23.3327 21.6192 23.0869 22.2127 22.6493 22.6502C22.2117 23.0878 21.6182 23.3337 20.9994 23.3337H6.99935C6.38051 23.3337 5.78702 23.0878 5.34943 22.6502C4.91185 22.2127 4.66602 21.6192 4.66602 21.0003V7.00033Z" stroke="#E4D5FD" stroke-width="2" stroke-linecap="round" stroke-linejoin="round"/>
<path d="M18.6667 18.6673V15.1673C18.6667 14.5485 18.4208 13.955 17.9832 13.5174C17.5457 13.0798 16.9522 12.834 16.3333 12.834C15.7145 12.834 15.121 13.0798 14.6834 13.5174C14.2458 13.955 14 14.5485 14 15.1673" stroke="#E4D5FD" stroke-width="2" stroke-linecap="round" stroke-linejoin="round"/>
</svg>
