<svg width="200" height="200" viewBox="0 0 200 200" fill="none" xmlns="http://www.w3.org/2000/svg">
<path fill-rule="evenodd" clip-rule="evenodd" d="M137.274 76.7861C126.653 76.7861 118.044 85.7882 118.044 96.8924C118.044 107.998 126.653 116.999 137.274 116.999C147.892 116.999 156.503 107.997 156.503 96.8924C156.503 85.7892 147.892 76.7861 137.274 76.7861ZM34.2501 113.598H18.2911L16.108 111.416V79.6499L18.2942 77.4979H8.82422L11.0094 79.6499V114.085L8.82422 116.221H37.2332L37.7198 108.744L34.2501 113.598ZM68.9728 113.598H53.0148L50.8317 111.415V97.5741H64.0785L67.1 99.2736V94.1739L64.672 95.3879H50.8307V79.6499H62.7286C68.0701 79.6499 68.7985 83.9766 68.7985 83.9766L68.3129 77.4979H43.5458L45.731 79.6499V114.085L43.5458 116.221H71.9548L72.4404 108.744L68.9728 113.598ZM113.72 79.0169L114.596 77.4979H110.187L111.048 79.0003V106.097L83.7023 77.4979H76.8117L80.4547 81.2716V114.432L79.5769 116.221H83.9876L83.1254 114.448V84.0949L113.724 116.442L113.72 79.0169Z" fill="black"/>
<path fill-rule="evenodd" clip-rule="evenodd" d="M144.374 112.718C151.6 109.366 154.169 99.5632 150.112 90.8226C146.058 82.083 136.911 77.7159 129.687 81.0683C122.462 84.4207 119.893 94.2248 123.948 102.964C128.003 111.704 137.149 116.071 144.374 112.718Z" fill="#F2E8FF"/>
<path fill-rule="evenodd" clip-rule="evenodd" d="M191.177 116.222L187.762 114.368L174.41 95.9774L187.059 79.65H187.065L190.22 77.4981H183.786L184.167 79.65L172.701 93.6242L162.167 79.65H162.297L163.997 77.4981H152.827L155.942 79.65H155.848L169.487 97.6635L156.998 113.364L156.941 113.358L153.783 116.222H160.218L159.851 114.28L171.197 100.018L181.646 114.408L180.006 116.222H191.177ZM54.5295 73.5262L55.5712 73.8655C58.8801 74.9436 66.4783 74.4476 71.5479 64.8521L73.3232 61.4924L69.5609 62.0205C69.3679 62.0464 66.4638 62.4822 62.772 64.4287C63.8542 61.8192 64.6231 59.0997 64.2786 57.1148L63.7723 54.1992L61.2987 55.8241C60.9127 56.0783 51.8764 62.1502 54.2815 72.4575L54.5295 73.5262Z" fill="black"/>
<path fill-rule="evenodd" clip-rule="evenodd" d="M84.5185 51.3973L85.5032 48.7878L82.7142 48.7681C72.9038 48.6985 69.6313 56.2563 69.4964 56.5769L68.2773 59.4946L71.4305 59.2642C81.715 58.5151 84.4085 51.6878 84.5185 51.3973ZM69.3252 134.774C69.3346 134.398 69.4757 125.497 62.4699 121.32L59.6093 119.615L59.5336 122.945C59.5305 123.074 59.5097 124.791 60.2734 127.282C58.4628 126.257 56.4862 125.357 54.5553 124.903L51.5234 124.188L52.2155 127.226C52.2684 127.459 53.5758 132.992 58.2013 135.727C60.9561 137.356 64.2245 137.648 67.9172 136.592L69.2899 136.201L69.3252 134.774ZM76.36 131.987L73.7391 131.667L74.2143 134.265C74.2506 134.463 74.8649 137.548 78.0627 140.82C75.808 140.712 73.4423 140.828 71.307 141.382L68.2762 142.168L70.3265 144.535C70.4147 144.636 72.5137 147.029 75.89 148.389C79.093 149.68 84.0526 150.294 89.4927 145.883L90.441 145.115L90.1598 143.927C90.0571 143.496 87.5296 133.35 76.36 131.987ZM101.495 143.224C101.061 142.788 100.544 142.441 99.9754 142.206C99.4064 141.971 98.7962 141.85 98.1804 141.853C96.9369 141.854 95.7446 142.348 94.8653 143.227C93.986 144.107 93.4916 145.299 93.4905 146.542C93.4905 147.795 93.9782 148.972 94.8642 149.858C95.2986 150.294 95.8154 150.641 96.3846 150.877C96.9538 151.113 97.5642 151.233 98.1804 151.231C98.7963 151.233 99.4064 151.112 99.9755 150.876C100.544 150.641 101.061 150.294 101.495 149.858C102.382 148.971 102.869 147.795 102.869 146.542C102.869 145.29 102.382 144.112 101.495 143.224Z" fill="black"/>
<path fill-rule="evenodd" clip-rule="evenodd" d="M62.3654 57.4495C62.3654 57.4495 54.0492 62.9134 56.1742 72.0181C56.1742 72.0181 64.1874 74.6287 69.8329 63.9447C69.8329 63.9447 62.9133 64.9159 56.9638 71.2898C56.9638 71.2898 63.0938 61.6371 62.3654 57.4495ZM71.2896 57.327C71.2896 57.327 74.0818 50.6492 82.702 50.7104C82.702 50.7104 80.4556 56.6599 71.2896 57.327ZM61.4752 122.987C61.4752 122.987 61.3538 128.288 66.1692 133.874C66.1692 133.874 59.7746 128.128 54.1094 126.793C54.1094 126.793 56.6182 137.799 67.3832 134.725C67.3832 134.725 67.5855 126.631 61.4752 122.987ZM88.2697 144.375C88.2697 144.375 86.0804 135.128 76.1248 133.914C76.1248 133.914 77.3387 140.55 87.1729 144.314C87.1729 144.314 78.1885 141.605 71.7949 143.262C71.7949 143.262 79.1607 151.762 88.2697 144.375Z" fill="white"/>
<path fill-rule="evenodd" clip-rule="evenodd" d="M140.682 72.4595C143.088 62.1522 134.051 56.0792 133.664 55.826L131.192 54.2012L130.685 57.1168C130.339 59.1017 131.109 61.8212 132.191 64.4307C128.498 62.4842 125.595 62.0484 125.402 62.0225L121.639 61.4943L123.414 64.854C128.485 74.4485 136.082 74.9445 139.391 73.8675L140.432 73.5282L140.682 72.4595Z" fill="black"/>
<path fill-rule="evenodd" clip-rule="evenodd" d="M110.446 51.3973L109.461 48.7878L112.25 48.7681C122.059 48.6985 125.333 56.2563 125.467 56.5769L126.687 59.4946L123.534 59.2642C113.248 58.5151 110.556 51.6878 110.446 51.3973ZM125.673 136.201L127.047 136.592C130.74 137.648 134.006 137.356 136.762 135.727C141.387 132.991 142.694 127.458 142.747 127.226L143.44 124.188L140.408 124.903C138.479 125.357 136.501 126.257 134.691 127.282C135.455 124.792 135.433 123.074 135.431 122.945L135.354 119.615L132.495 121.32C125.487 125.496 125.629 134.398 125.639 134.774L125.673 136.201ZM104.805 143.928L104.523 145.116L105.472 145.884C110.911 150.295 115.871 149.681 119.073 148.39C122.45 147.03 124.549 144.637 124.638 144.536L126.687 142.169L123.657 141.383C121.521 140.83 119.156 140.713 116.901 140.821C120.099 137.549 120.713 134.464 120.749 134.266L121.225 131.668L118.603 131.988C107.433 133.35 104.905 143.496 104.805 143.928Z" fill="black"/>
<path fill-rule="evenodd" clip-rule="evenodd" d="M132.598 57.4495C132.598 57.4495 140.915 62.9134 138.789 72.0181C138.789 72.0181 130.776 74.6287 125.133 63.9447C125.133 63.9447 132.051 64.9159 138.001 71.2898C138.001 71.2898 131.871 61.6371 132.598 57.4495ZM123.675 57.327C123.675 57.327 120.883 50.6492 112.262 50.7104C112.262 50.7114 114.509 56.6599 123.675 57.327ZM133.487 122.987C133.487 122.987 133.609 128.288 128.794 133.874C128.794 133.874 135.188 128.128 140.854 126.793C140.854 126.793 138.345 137.799 127.58 134.725C127.58 134.725 127.378 126.631 133.487 122.987ZM106.693 144.375C106.693 144.375 108.883 135.128 118.838 133.914C118.838 133.914 117.624 140.55 107.792 144.314C107.792 144.314 116.775 141.605 123.169 143.262C123.169 143.263 115.804 151.762 106.693 144.375ZM98.1796 149.288C98.9078 149.288 99.6063 148.999 100.121 148.484C100.636 147.969 100.926 147.27 100.926 146.542C100.926 145.814 100.636 145.115 100.121 144.6C99.6063 144.085 98.9078 143.796 98.1796 143.796C97.4513 143.796 96.7528 144.085 96.2379 144.6C95.7229 145.115 95.4336 145.814 95.4336 146.542C95.4336 147.27 95.7229 147.969 96.2379 148.484C96.7528 148.999 97.4513 149.288 98.1796 149.288Z" fill="white"/>
</svg>
