<svg width="201" height="200" viewBox="0 0 201 200" fill="none" xmlns="http://www.w3.org/2000/svg">
<path fill-rule="evenodd" clip-rule="evenodd" d="M180.13 57.3408C180.13 104.459 141.93 142.66 94.8095 142.66C47.6898 142.66 9.49023 104.46 9.49023 57.3408H180.13ZM169.693 112.494C169.693 106.22 174.781 101.594 180.796 101.594C186.754 101.594 191.842 106.22 191.842 112.494C191.842 118.828 186.754 123.453 180.796 123.453C174.782 123.453 169.693 118.827 169.693 112.494Z" fill="black"/>
<path fill-rule="evenodd" clip-rule="evenodd" d="M180.795 121.635C185.74 121.635 189.645 117.759 189.645 112.495C189.645 107.319 185.739 103.416 180.795 103.416C175.792 103.416 171.889 107.319 171.889 112.495C171.889 117.757 175.792 121.635 180.795 121.635Z" fill="white"/>
<path fill-rule="evenodd" clip-rule="evenodd" d="M178.483 118.827H176.574V106.221H181.373C184.352 106.221 185.827 107.32 185.827 109.806C185.827 112.061 184.411 113.044 182.561 113.277L186.146 118.828H184.006L180.681 113.362H178.484V118.827H178.483Z" fill="black"/>
<path fill-rule="evenodd" clip-rule="evenodd" d="M180.767 111.743C182.387 111.743 183.831 111.627 183.831 109.689C183.831 108.129 182.415 107.839 181.086 107.839H178.483V111.743H180.767ZM61.9018 74.043V103.461H68.6326V74.043H61.9018ZM120.486 74.043V103.461H127.216V74.043H120.486ZM133.294 74.153L133.2 103.461H139.93V83.5172C139.93 83.5172 139.869 81.6475 141.863 81.6475H147.034C147.034 81.6475 148.655 81.7097 148.655 83.5172V103.461H155.385V82.519C155.385 82.519 155.574 74.0897 148.592 74.153H133.294ZM34.0739 74.153L33.9805 103.461H40.7113V83.5172C40.7113 83.5172 40.648 81.6475 42.6432 81.6475H47.8166C47.8166 81.6475 49.4373 81.7097 49.4373 83.5172V103.461H56.1681V82.519C56.1681 82.519 56.3549 74.0897 49.3751 74.153H34.0739ZM82.7198 95.0592C88.0374 95.2253 88.0789 92.0264 88.0789 92.0264C88.6195 88.702 84.215 87.4144 84.215 87.4144C79.1038 85.5654 76.6728 83.2173 76.6728 83.2173C72.2267 79.9137 73.4739 72.4566 73.4739 72.4566C75.3644 63.7928 84.0479 64.3126 84.0479 64.3126H93.2502V71.4678H86.6647C81.3471 71.3018 81.3045 74.5006 81.3045 74.5006C80.764 77.825 85.1695 79.1127 85.1695 79.1127C91.2778 80.9616 92.7107 83.2464 92.7107 83.2464C96.9689 88.5432 95.4737 94.0694 95.4737 94.0694C93.6455 103.044 85.3355 102.213 85.3355 102.213H73.3691V95.0458L82.7198 95.0592Z" fill="white"/>
<path fill-rule="evenodd" clip-rule="evenodd" d="M103.91 103.535C109.227 103.701 109.27 100.501 109.27 100.501C109.809 97.1766 105.405 95.889 105.405 95.889C100.295 94.04 97.8636 91.693 97.8636 91.693C93.4186 88.3893 94.6647 80.9312 94.6647 80.9312C96.5552 72.2674 105.239 72.7872 105.239 72.7872H114.441V79.9424H107.854C102.537 79.7764 102.494 82.9752 102.494 82.9752C101.955 86.2986 106.359 87.5873 106.359 87.5873C112.468 89.4362 113.9 91.721 113.9 91.721C118.16 97.0189 116.665 102.545 116.665 102.545C114.836 111.52 106.526 110.69 106.526 110.69H94.5599V103.522L103.91 103.535Z" fill="white"/>
</svg>
