<svg width="20" height="16" viewBox="0 0 20 16" fill="none" xmlns="http://www.w3.org/2000/svg">
<g clip-path="url(#clip0_74_664)">
<path d="M15.1964 6.60927C13.5622 6.60927 12.1846 5.13852 12.1864 3.50436C12.1881 1.78293 13.6846 0 15.6046 0C18.3487 0 19.9987 2.47408 19.9987 5.14086C19.9987 11.2997 14.0419 14.9974 12.4365 15.5333C12.0874 15.6499 11.7107 15.4577 11.6012 15.1063L11.5983 15.0975C11.5005 14.7847 11.6492 14.4485 11.945 14.308C12.9905 13.8107 17.2552 11.8784 17.6704 5.62467C17.6704 5.62467 16.9699 6.60927 15.1958 6.60927H15.1964Z" fill="white"/>
<path d="M3.62801 6.60927C1.99385 6.60927 0.616234 5.13852 0.617991 3.50436C0.619749 1.78352 2.11568 0 4.03625 0C6.78035 0 8.43033 2.47408 8.43033 5.14086C8.43033 11.2997 2.47355 14.9974 0.868094 15.5333C0.519005 15.6499 0.142387 15.4577 0.0328569 15.1063L0.0299283 15.0975C-0.067887 14.7847 0.0808859 14.4485 0.376675 14.308C1.42219 13.8107 5.68681 11.8784 6.10209 5.62467C6.10209 5.62467 5.40157 6.60927 3.62742 6.60927H3.62801Z" fill="white"/>
</g>
<defs>
<clipPath id="clip0_74_664">
<rect width="20" height="15.5679" fill="white"/>
</clipPath>
</defs>
</svg>
