<svg width="20" height="16" viewBox="0 0 20 16" fill="none" xmlns="http://www.w3.org/2000/svg">
<g clip-path="url(#clip0_74_667)">
<path d="M15.1964 8.95861C13.5622 8.95861 12.1846 10.4293 12.1864 12.0635C12.1881 13.7849 13.6846 15.5679 15.6046 15.5679C18.3487 15.5679 19.9987 13.0938 19.9987 10.427C19.9987 4.26816 14.0419 0.570507 12.4365 0.0345736C12.0874 -0.0819845 11.7107 0.110132 11.6012 0.461564L11.5983 0.470349C11.5005 0.783124 11.6492 1.11933 11.945 1.2599C12.9905 1.75718 17.2552 3.68947 17.6704 9.9432C17.6704 9.9432 16.9699 8.95861 15.1958 8.95861H15.1964Z" fill="white"/>
<path d="M3.62801 8.95861C1.99385 8.95861 0.616234 10.4293 0.617991 12.0635C0.619749 13.7844 2.11568 15.5679 4.03625 15.5679C6.78035 15.5679 8.43033 13.0938 8.43033 10.427C8.43033 4.26816 2.47355 0.570507 0.868094 0.0345736C0.519005 -0.0819845 0.142387 0.110132 0.0328569 0.461564L0.0299283 0.470349C-0.067887 0.783124 0.0808859 1.11933 0.376675 1.2599C1.42219 1.75718 5.68681 3.68947 6.10209 9.9432C6.10209 9.9432 5.40157 8.95861 3.62742 8.95861H3.62801Z" fill="white"/>
</g>
<defs>
<clipPath id="clip0_74_667">
<rect width="20" height="15.5679" fill="white" transform="matrix(1 0 0 -1 0 15.5679)"/>
</clipPath>
</defs>
</svg>
