<svg width="59" height="50" viewBox="0 0 59 50" fill="none" xmlns="http://www.w3.org/2000/svg">
<path d="M0.768156 46.4244C-0.102032 47.1047 -0.255943 48.3617 0.424386 49.2318C1.10471 50.102 2.36166 50.2559 3.23184 49.5756L0.768156 46.4244ZM58.9852 5.24308C59.1194 4.1467 58.3395 3.14908 57.2431 3.01483L39.3765 0.827086C38.2801 0.692836 37.2825 1.4728 37.1483 2.56918C37.014 3.66556 37.794 4.66318 38.8904 4.79743L54.7717 6.74209L52.8271 22.6235C52.6928 23.7199 53.4728 24.7175 54.5692 24.8517C55.6656 24.986 56.6632 24.206 56.7974 23.1096L58.9852 5.24308ZM3.23184 49.5756L58.2318 6.57561L55.7682 3.42439L0.768156 46.4244L3.23184 49.5756Z" fill="#24025C"/>
</svg>
